<?xml version="1.0" standalone="no"?>
<!DOCTYPE svg PUBLIC "-//W3C//DTD SVG 20010904//EN"
 "http://www.w3.org/TR/2001/REC-SVG-20010904/DTD/svg10.dtd">
<svg version="1.0" xmlns="http://www.w3.org/2000/svg"
 width="713.000000pt" height="713.000000pt" viewBox="0 0 713.000000 713.000000"
 preserveAspectRatio="xMidYMid meet">
<metadata>
Created by potrace 1.14, written by Peter Selinger 2001-2017
</metadata>
<g transform="translate(0.000000,713.000000) scale(0.100000,-0.100000)"
fill="#000000" stroke="none">
<path d="M3359 7126 c-2 -2 -42 -7 -89 -10 -47 -4 -94 -9 -105 -11 -11 -2 -42
-7 -69 -10 -144 -17 -387 -75 -566 -135 -855 -287 -1584 -939 -1985 -1775 -39
-82 -80 -170 -90 -195 -10 -25 -23 -58 -30 -75 -86 -202 -188 -600 -220 -855
-4 -30 -9 -62 -10 -70 -27 -143 -26 -661 0 -867 14 -104 37 -253 45 -283 5
-19 12 -51 15 -70 34 -198 159 -563 277 -810 516 -1076 1505 -1806 2641 -1947
83 -11 706 -10 782 0 33 5 77 10 98 13 121 13 372 76 552 136 1034 348 1849
1205 2189 2300 25 80 47 157 50 170 3 12 16 73 30 134 23 104 48 251 64 384 4
30 7 215 7 410 0 313 -4 414 -19 510 -3 14 -10 59 -16 100 -20 124 -25 146
-72 330 -145 567 -436 1107 -823 1529 -249 270 -507 479 -820 662 -356 208
-829 368 -1225 415 -36 4 -76 9 -90 10 -36 5 -517 14 -521 10z"/>
</g>
</svg>
